<mxfile host="app.diagrams.net" modified="2023-11-21T11:45:23.488Z" agent="Mozilla/5.0 (Windows NT 10.0; Win64; x64) AppleWebKit/537.36 (KHTML, like Gecko) Chrome/119.0.0.0 Safari/537.36" etag="mi6cbBkF58tVUQEUZuHt" version="22.1.3" type="device">
  <diagram name="페이지-1" id="vK-15AZ25s8mky0TbZnY">
    <mxGraphModel dx="973" dy="917" grid="1" gridSize="10" guides="1" tooltips="1" connect="1" arrows="1" fold="1" page="1" pageScale="1" pageWidth="827" pageHeight="1169" math="0" shadow="0">
      <root>
        <mxCell id="0" />
        <mxCell id="1" parent="0" />
        <mxCell id="W4tsY73vtSuOidAhocf7-3" value="POKEMON_SIMILARITY" style="swimlane;whiteSpace=wrap;html=1;fillColor=#f5f5f5;fontColor=#333333;strokeColor=#666666;startSize=30;" vertex="1" parent="1">
          <mxGeometry x="160" y="210" width="800" height="420" as="geometry" />
        </mxCell>
        <mxCell id="W4tsY73vtSuOidAhocf7-26" style="edgeStyle=orthogonalEdgeStyle;rounded=0;orthogonalLoop=1;jettySize=auto;html=1;entryX=0;entryY=0.25;entryDx=0;entryDy=0;strokeColor=#FF6666;" edge="1" parent="W4tsY73vtSuOidAhocf7-3" source="W4tsY73vtSuOidAhocf7-11" target="W4tsY73vtSuOidAhocf7-20">
          <mxGeometry relative="1" as="geometry" />
        </mxCell>
        <mxCell id="W4tsY73vtSuOidAhocf7-11" value="main.py" style="swimlane;fontStyle=0;childLayout=stackLayout;horizontal=1;startSize=30;horizontalStack=0;resizeParent=1;resizeParentMax=0;resizeLast=0;collapsible=1;marginBottom=0;whiteSpace=wrap;html=1;fillColor=#dae8fc;strokeColor=#6c8ebf;" vertex="1" parent="W4tsY73vtSuOidAhocf7-3">
          <mxGeometry x="145" y="60" width="200" height="60" as="geometry" />
        </mxCell>
        <mxCell id="W4tsY73vtSuOidAhocf7-12" value="start(first_name, second_name)" style="text;strokeColor=none;fillColor=none;align=center;verticalAlign=middle;spacingLeft=4;spacingRight=4;overflow=hidden;points=[[0,0.5],[1,0.5]];portConstraint=eastwest;rotatable=0;whiteSpace=wrap;html=1;" vertex="1" parent="W4tsY73vtSuOidAhocf7-11">
          <mxGeometry y="30" width="200" height="30" as="geometry" />
        </mxCell>
        <mxCell id="W4tsY73vtSuOidAhocf7-2" value="model" style="swimlane;whiteSpace=wrap;html=1;fillColor=#d5e8d4;strokeColor=#82b366;" vertex="1" parent="W4tsY73vtSuOidAhocf7-3">
          <mxGeometry x="275" y="130" width="480" height="260" as="geometry" />
        </mxCell>
        <mxCell id="W4tsY73vtSuOidAhocf7-20" value="similarity.py" style="swimlane;fontStyle=0;childLayout=stackLayout;horizontal=1;startSize=30;horizontalStack=0;resizeParent=1;resizeParentMax=0;resizeLast=0;collapsible=1;marginBottom=0;whiteSpace=wrap;html=1;fillColor=#dae8fc;strokeColor=#6c8ebf;" vertex="1" parent="W4tsY73vtSuOidAhocf7-2">
          <mxGeometry x="70" y="180" width="240" height="60" as="geometry" />
        </mxCell>
        <mxCell id="W4tsY73vtSuOidAhocf7-21" value="similar_output(first_name, second_name)" style="text;strokeColor=none;fillColor=none;align=center;verticalAlign=middle;spacingLeft=4;spacingRight=4;overflow=hidden;points=[[0,0.5],[1,0.5]];portConstraint=eastwest;rotatable=0;whiteSpace=wrap;html=1;" vertex="1" parent="W4tsY73vtSuOidAhocf7-20">
          <mxGeometry y="30" width="240" height="30" as="geometry" />
        </mxCell>
        <mxCell id="W4tsY73vtSuOidAhocf7-30" style="edgeStyle=orthogonalEdgeStyle;rounded=0;orthogonalLoop=1;jettySize=auto;html=1;entryX=0.5;entryY=0;entryDx=0;entryDy=0;strokeColor=#FF6666;" edge="1" parent="W4tsY73vtSuOidAhocf7-2" source="W4tsY73vtSuOidAhocf7-14" target="W4tsY73vtSuOidAhocf7-20">
          <mxGeometry relative="1" as="geometry" />
        </mxCell>
        <mxCell id="W4tsY73vtSuOidAhocf7-14" value="embedding.py" style="swimlane;fontStyle=0;childLayout=stackLayout;horizontal=1;startSize=30;horizontalStack=0;resizeParent=1;resizeParentMax=0;resizeLast=0;collapsible=1;marginBottom=0;whiteSpace=wrap;html=1;fillColor=#dae8fc;strokeColor=#6c8ebf;" vertex="1" parent="W4tsY73vtSuOidAhocf7-2">
          <mxGeometry x="220" y="76" width="240" height="60" as="geometry" />
        </mxCell>
        <mxCell id="W4tsY73vtSuOidAhocf7-15" value="extract_features(image_path, model)" style="text;strokeColor=none;fillColor=none;align=center;verticalAlign=middle;spacingLeft=4;spacingRight=4;overflow=hidden;points=[[0,0.5],[1,0.5]];portConstraint=eastwest;rotatable=0;whiteSpace=wrap;html=1;" vertex="1" parent="W4tsY73vtSuOidAhocf7-14">
          <mxGeometry y="30" width="240" height="30" as="geometry" />
        </mxCell>
        <mxCell id="W4tsY73vtSuOidAhocf7-37" style="edgeStyle=orthogonalEdgeStyle;rounded=0;orthogonalLoop=1;jettySize=auto;html=1;entryX=0.5;entryY=0;entryDx=0;entryDy=0;strokeColor=#3333FF;" edge="1" parent="W4tsY73vtSuOidAhocf7-2" source="W4tsY73vtSuOidAhocf7-17" target="W4tsY73vtSuOidAhocf7-14">
          <mxGeometry relative="1" as="geometry">
            <Array as="points">
              <mxPoint x="90" y="40" />
              <mxPoint x="340" y="40" />
            </Array>
          </mxGeometry>
        </mxCell>
        <mxCell id="W4tsY73vtSuOidAhocf7-17" value="model.py" style="swimlane;fontStyle=0;childLayout=stackLayout;horizontal=1;startSize=30;horizontalStack=0;resizeParent=1;resizeParentMax=0;resizeLast=0;collapsible=1;marginBottom=0;whiteSpace=wrap;html=1;fillColor=#dae8fc;strokeColor=#6c8ebf;" vertex="1" parent="W4tsY73vtSuOidAhocf7-2">
          <mxGeometry x="20" y="76" width="140" height="60" as="geometry" />
        </mxCell>
        <mxCell id="W4tsY73vtSuOidAhocf7-18" value="_get_model()" style="text;strokeColor=none;fillColor=none;align=center;verticalAlign=middle;spacingLeft=4;spacingRight=4;overflow=hidden;points=[[0,0.5],[1,0.5]];portConstraint=eastwest;rotatable=0;whiteSpace=wrap;html=1;" vertex="1" parent="W4tsY73vtSuOidAhocf7-17">
          <mxGeometry y="30" width="140" height="30" as="geometry" />
        </mxCell>
        <mxCell id="W4tsY73vtSuOidAhocf7-29" style="edgeStyle=orthogonalEdgeStyle;rounded=0;orthogonalLoop=1;jettySize=auto;html=1;entryX=0.5;entryY=0;entryDx=0;entryDy=0;strokeColor=#FF6666;" edge="1" parent="W4tsY73vtSuOidAhocf7-2" source="W4tsY73vtSuOidAhocf7-17" target="W4tsY73vtSuOidAhocf7-20">
          <mxGeometry relative="1" as="geometry" />
        </mxCell>
        <mxCell id="W4tsY73vtSuOidAhocf7-38" style="edgeStyle=orthogonalEdgeStyle;rounded=0;orthogonalLoop=1;jettySize=auto;html=1;entryX=0.5;entryY=0;entryDx=0;entryDy=0;strokeColor=#B266FF;" edge="1" parent="W4tsY73vtSuOidAhocf7-3" source="W4tsY73vtSuOidAhocf7-20" target="W4tsY73vtSuOidAhocf7-11">
          <mxGeometry relative="1" as="geometry">
            <Array as="points">
              <mxPoint x="780" y="350" />
              <mxPoint x="780" y="40" />
              <mxPoint x="245" y="40" />
            </Array>
          </mxGeometry>
        </mxCell>
        <mxCell id="W4tsY73vtSuOidAhocf7-1" value="data" style="swimlane;whiteSpace=wrap;html=1;fillColor=#d5e8d4;strokeColor=#82b366;startSize=20;" vertex="1" parent="1">
          <mxGeometry x="200" y="350" width="175" height="180" as="geometry" />
        </mxCell>
        <mxCell id="W4tsY73vtSuOidAhocf7-7" value="load.py" style="swimlane;fontStyle=0;childLayout=stackLayout;horizontal=1;startSize=30;horizontalStack=0;resizeParent=1;resizeParentMax=0;resizeLast=0;collapsible=1;marginBottom=0;whiteSpace=wrap;html=1;fillColor=#dae8fc;strokeColor=#6c8ebf;" vertex="1" parent="W4tsY73vtSuOidAhocf7-1">
          <mxGeometry x="15" y="66" width="140" height="90" as="geometry" />
        </mxCell>
        <mxCell id="W4tsY73vtSuOidAhocf7-8" value="_data()" style="text;strokeColor=none;fillColor=none;align=center;verticalAlign=middle;spacingLeft=4;spacingRight=4;overflow=hidden;points=[[0,0.5],[1,0.5]];portConstraint=eastwest;rotatable=0;whiteSpace=wrap;html=1;" vertex="1" parent="W4tsY73vtSuOidAhocf7-7">
          <mxGeometry y="30" width="140" height="30" as="geometry" />
        </mxCell>
        <mxCell id="W4tsY73vtSuOidAhocf7-9" value="confirm()" style="text;strokeColor=none;fillColor=none;align=center;verticalAlign=middle;spacingLeft=4;spacingRight=4;overflow=hidden;points=[[0,0.5],[1,0.5]];portConstraint=eastwest;rotatable=0;whiteSpace=wrap;html=1;" vertex="1" parent="W4tsY73vtSuOidAhocf7-7">
          <mxGeometry y="60" width="140" height="30" as="geometry" />
        </mxCell>
        <mxCell id="W4tsY73vtSuOidAhocf7-28" style="edgeStyle=orthogonalEdgeStyle;rounded=0;orthogonalLoop=1;jettySize=auto;html=1;entryX=0.5;entryY=0;entryDx=0;entryDy=0;strokeColor=#FF6666;" edge="1" parent="1" target="W4tsY73vtSuOidAhocf7-20">
          <mxGeometry relative="1" as="geometry">
            <mxPoint x="290" y="410" as="sourcePoint" />
            <Array as="points">
              <mxPoint x="290" y="400" />
              <mxPoint x="625" y="400" />
            </Array>
          </mxGeometry>
        </mxCell>
        <mxCell id="W4tsY73vtSuOidAhocf7-36" style="edgeStyle=orthogonalEdgeStyle;rounded=0;orthogonalLoop=1;jettySize=auto;html=1;entryX=0.5;entryY=0;entryDx=0;entryDy=0;strokeColor=#3333FF;" edge="1" parent="1" source="W4tsY73vtSuOidAhocf7-7" target="W4tsY73vtSuOidAhocf7-14">
          <mxGeometry relative="1" as="geometry">
            <Array as="points">
              <mxPoint x="290" y="380" />
              <mxPoint x="775" y="380" />
            </Array>
          </mxGeometry>
        </mxCell>
        <mxCell id="W4tsY73vtSuOidAhocf7-39" style="edgeStyle=orthogonalEdgeStyle;rounded=0;orthogonalLoop=1;jettySize=auto;html=1;entryX=0.5;entryY=0;entryDx=0;entryDy=0;strokeColor=#B266FF;" edge="1" parent="1" source="W4tsY73vtSuOidAhocf7-7" target="W4tsY73vtSuOidAhocf7-11">
          <mxGeometry relative="1" as="geometry">
            <Array as="points">
              <mxPoint x="180" y="490" />
              <mxPoint x="180" y="250" />
              <mxPoint x="405" y="250" />
            </Array>
          </mxGeometry>
        </mxCell>
      </root>
    </mxGraphModel>
  </diagram>
</mxfile>
